<?xml version="1.0" encoding="utf-8"?>
<!-- Generator: Adobe Illustrator 19.1.0, SVG Export Plug-In . SVG Version: 6.00 Build 0)  -->
<svg version="1.1" id="Layer_1" xmlns="http://www.w3.org/2000/svg" xmlns:xlink="http://www.w3.org/1999/xlink" x="0px" y="0px"
	 viewBox="0 0 800 200" style="enable-background:new 0 0 800 200;" xml:space="preserve">
<style type="text/css">
	.st0{fill:#282828;}
	.st1{font-family:'HelveticaNeue-Medium';}
	.st2{font-size:126.5125px;}
	.st3{font-size:126.51px;}
	.st4{fill:url(#SVGID_1_);}
	.st5{fill:#282828;stroke:#282828;stroke-miterlimit:10;}
</style>
<g>
	<text transform="matrix(1 0 0 1 69.1212 136.0554)" class="st0 st1 st2">Lazy</text>
	<text transform="matrix(1 0 0 1 426.246 136.055)" class="st0 st1 st3">Ruby</text>
	<g>
		
			<linearGradient id="SVGID_1_" gradientUnits="userSpaceOnUse" x1="1025.0127" y1="432.326" x2="1102.7882" y2="477.2297" gradientTransform="matrix(-0.9239 -0.3826 -0.3826 0.9239 1546.0171 77.3166)">
			<stop  offset="0" style="stop-color:#DC522B"/>
			<stop  offset="1" style="stop-color:#CC342D"/>
		</linearGradient>
		<polygon class="st4" points="436.2,104.8 430.2,70.4 369,45.1 340.4,65.1 354.7,128.5 381.4,139.6 		"/>
		<g>
			<path class="st0" d="M395.8,117.1c0,0-1.7-2.7-4.7-6.3c-0.8-0.9-1.6-1.9-2.5-2.9c-0.9-1-1.9-2-3-3c-1.1-1-2.2-2-3.4-3
				c-1.2-1-2.4-1.9-3.7-2.8c-0.6-0.4-1.3-0.9-1.9-1.3c-0.6-0.4-1.3-0.8-2-1.2c-1.3-0.7-2.7-1.4-4-2c-1.3-0.6-2.6-1.2-3.8-1.7
				c-0.6-0.3-1.2-0.5-1.8-0.7c-0.6-0.3-1.1-0.4-1.7-0.6c-1.1-0.4-2.1-0.7-3-1c-0.9-0.3-1.7-0.5-2.4-0.7c-1.3-0.3-2.1-0.5-2.1-0.5
				l0-0.3c0,0,0.8-0.1,2.2-0.2c0.7,0,1.6,0,2.6,0c1,0.1,2.1,0.1,3.3,0.4c1.2,0.2,2.5,0.5,3.9,0.9c1.4,0.4,2.7,1,4.1,1.6
				c1.4,0.7,2.8,1.5,4.1,2.4c1.3,0.9,2.6,1.9,3.9,2.9c5.1,4.1,9.3,9,12,13c2.8,3.9,4.1,6.8,4.1,6.8L395.8,117.1z"/>
		</g>
		<circle class="st5" cx="408.3" cy="95.8" r="6.6"/>
		<circle class="st5" cx="367.1" cy="71.6" r="6.6"/>
	</g>
</g>
</svg>
