<?xml version="1.0" encoding="utf-8"?>
<!-- Generator: Adobe Illustrator 19.1.0, SVG Export Plug-In . SVG Version: 6.00 Build 0)  -->
<svg version="1.1" id="Layer_1" xmlns="http://www.w3.org/2000/svg" xmlns:xlink="http://www.w3.org/1999/xlink" x="0px" y="0px"
	 viewBox="0 0 100 100" style="enable-background:new 0 0 100 100;" xml:space="preserve">
<style type="text/css">
	.st0{fill:url(#SVGID_1_);}
	.st1{fill:#282828;}
	.st2{fill:#282828;stroke:#282828;stroke-miterlimit:10;}
</style>
<g>
	
		<linearGradient id="SVGID_1_" gradientUnits="userSpaceOnUse" x1="662.6203" y1="385.4756" x2="740.3958" y2="430.3793" gradientTransform="matrix(-0.9239 -0.3826 -0.3826 0.9239 855.2697 -60.0377)">
		<stop  offset="0" style="stop-color:#DC522B"/>
		<stop  offset="1" style="stop-color:#CC342D"/>
	</linearGradient>
	<polygon class="st0" points="98.2,62.8 92.2,28.4 31,3.1 2.4,23.1 16.7,86.5 43.4,97.6 	"/>
	<g>
		<path class="st1" d="M57.8,75.1c0,0-1.7-2.7-4.7-6.3c-0.8-0.9-1.6-1.9-2.5-2.9c-0.9-1-1.9-2-3-3c-1.1-1-2.2-2-3.4-3
			c-1.2-1-2.4-1.9-3.7-2.8c-0.6-0.4-1.3-0.9-1.9-1.3c-0.6-0.4-1.3-0.8-2-1.2c-1.3-0.7-2.7-1.4-4-2c-1.3-0.6-2.6-1.2-3.8-1.7
			c-0.6-0.3-1.2-0.5-1.8-0.7c-0.6-0.3-1.1-0.4-1.7-0.6c-1.1-0.4-2.1-0.7-3-1c-0.9-0.3-1.7-0.5-2.4-0.7c-1.3-0.3-2.1-0.5-2.1-0.5
			l0-0.3c0,0,0.8-0.1,2.2-0.2c0.7,0,1.6,0,2.6,0c1,0.1,2.1,0.1,3.3,0.4c1.2,0.2,2.5,0.5,3.9,0.9c1.4,0.4,2.7,1,4.1,1.6
			c1.4,0.7,2.8,1.5,4.1,2.4c1.3,0.9,2.6,1.9,3.9,2.9c5.1,4.1,9.3,9,12,13c2.8,3.9,4.1,6.8,4.1,6.8L57.8,75.1z"/>
	</g>
	<circle class="st2" cx="70.3" cy="53.8" r="6.6"/>
	<circle class="st2" cx="29.1" cy="29.6" r="6.6"/>
</g>
</svg>
